PathFileType	4	(X/Y/Z)	s04c0001.trc
DataRate	CameraRate	NumFrames	NumMarkers	Units	OrigDataRate	OrigDataStartFrame	OrigNumFrames
200	200	4	49	mm	200	1250	2000
Frame#	Time	racr			lacr			c7			jug			rlel			rdr			llel			ldr			s2			lic			ric			lasi			rasi			rpsi			lpsi			rgt			lgt			rth1			rth2			rth3			rth4			rlfc			rmfc			rsh1			rsh2			rsh3			rsh4			rlmal			rmmal			rcal			rtoe			rmt5			rmt1			lth1			lth2			lth4			lth3			llfc			lmfc			lsh1			lsh2			lsh3			lsh4			llmal			lmmal			lcal			ltoe			lmt1			lmt5			
		X1	Y1	Z1	X2	Y2	Z2	X3	Y3	Z3	X4	Y4	Z4	X5	Y5	Z5	X6	Y6	Z6	X7	Y7	Z7	X8	Y8	Z8	X9	Y9	Z9	X10	Y10	Z10	X11	Y11	Z11	X12	Y12	Z12	X13	Y13	Z13	X14	Y14	Z14	X15	Y15	Z15	X16	Y16	Z16	X17	Y17	Z17	X18	Y18	Z18	X19	Y19	Z19	X20	Y20	Z20	X21	Y21	Z21	X22	Y22	Z22	X23	Y23	Z23	X24	Y24	Z24	X25	Y25	Z25	X26	Y26	Z26	X27	Y27	Z27	X28	Y28	Z28	X29	Y29	Z29	X30	Y30	Z30	X31	Y31	Z31	X32	Y32	Z32	X33	Y33	Z33	X34	Y34	Z34	X35	Y35	Z35	X36	Y36	Z36	X37	Y37	Z37	X38	Y38	Z38	X39	Y39	Z39	X40	Y40	Z40	X41	Y41	Z41	X42	Y42	Z42	X43	Y43	Z43	X44	Y44	Z44	X45	Y45	Z45	X46	Y46	Z46	X47	Y47	Z47	X48	Y48	Z48	X49	Y49	Z49	
1250	6.2500	187.993011	1566.149170	287.880615	210.628845	1562.601807	-79.388824	130.584045	1591.767822	89.007332	267.176208	1531.537720	101.331444	109.491150	1228.326416	387.978180	221.196960	985.283447	496.546173	166.305023	1247.308960	-191.543823	299.567566	984.799561	-269.696594	74.316353	1054.109375	99.778854	247.611526	1112.530273	-48.245544	213.543106	1100.484131	274.429871	294.778107	1056.604248	5.423408	277.416382	1059.338623	232.323776	90.362305	1089.333984	143.542236	92.079643	1085.205444	64.653900	175.777039	1000.449707	278.258423	197.396698	955.719971	-66.677940	189.227966	865.059998	299.798218	202.969406	778.363831	289.739838	175.010117	698.445190	280.044434	238.788727	777.308533	279.515137	158.665207	547.825562	249.765076	165.676544	525.414001	139.608154	108.999901	426.071960	268.145111	124.143745	336.382538	259.860199	90.557777	257.445038	243.005966	160.292694	335.286041	245.758224	89.419983	103.645210	231.406601	138.948074	111.346931	159.242691	48.291359	68.393570	167.986435	314.169708	83.134583	304.789368	232.282333	52.699280	326.684662	279.499908	49.768646	227.747620	200.162125	862.266785	-80.066971	218.773605	777.239380	-77.984024	254.034393	775.600403	-67.842514	191.776657	692.509705	-72.486694	169.478928	552.034241	-53.860741	194.800812	521.941345	50.702839	151.837967	423.978424	-80.362854	173.481796	340.008179	-67.966232	149.269531	254.299042	-67.600357	202.716873	341.141907	-41.725815	146.909103	104.799706	-63.830204	154.848846	100.193741	22.023920	80.143784	77.352882	-14.538568	377.002655	82.848984	-57.727303	312.872650	54.978939	0.022470	302.246399	43.130177	-110.988525	
1251	6.2550	188.072784	1566.174683	287.819977	210.779617	1562.520874	-79.461754	130.728378	1591.777710	88.880325	267.276245	1531.504761	101.272141	109.417458	1228.410278	387.908112	221.010345	985.331238	496.542786	166.453568	1247.188721	-191.484116	299.673889	984.626343	-269.513428	74.322357	1054.128052	99.735718	247.704330	1112.515015	-48.214211	213.535858	1100.481934	274.435364	294.851349	1056.585327	5.474134	277.385223	1059.343506	232.357956	90.391632	1089.333008	143.481232	92.121147	1085.223267	64.604805	175.721451	1000.455261	278.251465	197.477066	955.720825	-66.675591	189.169983	865.060730	299.793732	202.913406	778.355957	289.744537	174.959457	698.442444	280.064148	238.755295	777.277588	279.518860	158.637161	547.830078	249.760773	165.640732	525.412720	139.594284	108.970268	426.047516	268.141602	124.138763	336.406311	259.869019	90.554497	257.438141	242.998199	160.275452	335.301727	245.744156	89.406662	103.647194	231.416397	138.960083	111.362556	159.254105	48.298717	68.399261	167.979523	314.183807	83.140007	304.808746	232.277145	52.715076	326.687469	279.503021	49.772263	227.740326	200.219238	862.272644	-80.069473	218.818863	777.241394	-77.975990	254.072159	775.577026	-67.796318	191.819763	692.504822	-72.478645	169.478622	552.038025	-53.858009	194.760010	521.930237	50.704430	151.839859	423.990082	-80.372414	173.500046	340.014709	-67.942612	149.282211	254.301788	-67.597015	202.732346	341.149445	-41.711746	146.916901	104.802551	-63.829929	154.857391	100.204353	22.007317	80.140999	77.362335	-14.551622	376.995209	82.849571	-57.744617	312.881012	54.975880	0.040059	302.257416	43.129543	-110.981400	
1252	6.2600	188.163376	1566.222168	287.743805	210.942444	1562.458008	-79.528641	130.828613	1591.790039	88.814285	267.381073	1531.496460	101.224586	109.343513	1228.469727	387.873444	220.841812	985.386292	496.561157	166.589691	1247.076050	-191.432037	299.753540	984.481323	-269.330414	74.343895	1054.139526	99.666397	247.805496	1112.472290	-48.184498	213.503052	1100.488281	274.433319	294.909027	1056.559937	5.501600	277.379974	1059.353882	232.405365	90.390671	1089.360596	143.418594	92.155090	1085.243042	64.563248	175.649612	1000.463928	278.245087	197.551437	955.718933	-66.668991	189.092072	865.073547	299.790039	202.856445	778.341553	289.750977	174.909836	698.446289	280.066925	238.679459	777.297546	279.561035	158.612457	547.821533	249.758926	165.618271	525.411377	139.604950	108.942528	426.061401	268.133392	124.081161	336.399261	259.863342	90.526733	257.452728	242.994476	160.250183	335.301300	245.759766	89.427170	103.655350	231.418137	138.972610	111.351212	159.250443	48.304298	68.397408	167.985657	314.178253	83.141861	304.804932	232.260971	52.713535	326.688232	279.510590	49.779079	227.749878	200.283737	862.272522	-80.071358	218.851181	777.239685	-77.967041	254.116943	775.586548	-67.789757	191.862228	692.509949	-72.487930	169.492371	552.035095	-53.861176	194.737991	521.922119	50.706699	151.848160	423.985046	-80.367325	173.503860	340.024139	-67.961006	149.287567	254.306259	-67.599014	202.730484	341.157410	-41.715000	146.902115	104.828316	-63.837677	154.837921	100.213943	22.023079	80.157104	77.337799	-14.539002	376.986633	82.857109	-57.728504	312.876312	54.969185	0.022349	302.248291	43.130142	-111.001740	
1253	6.2650	188.222275	1566.270386	287.663086	211.063324	1562.371704	-79.581306	130.944534	1591.800781	88.705185	267.456207	1531.470825	101.202545	109.277847	1228.521362	387.803223	220.690201	985.434448	496.573029	166.713089	1246.955200	-191.392944	299.826385	984.296204	-269.146973	74.361877	1054.155029	99.610222	247.895432	1112.464111	-48.155273	213.456146	1100.519409	274.450836	294.994476	1056.541504	5.560588	277.339935	1059.343140	232.417542	90.415726	1089.371704	143.381500	92.216019	1085.250854	64.504906	175.596649	1000.457336	278.229431	197.635605	955.710388	-66.665871	189.045990	865.075928	299.788116	202.796585	778.342468	289.756104	174.871841	698.442932	280.077759	238.618927	777.315002	279.579285	158.549088	547.829834	249.755325	165.602173	525.411499	139.615433	108.913345	426.066345	268.129639	124.073662	336.420044	259.863434	90.508751	257.457458	243.005081	160.224243	335.307220	245.751572	89.412209	103.645927	231.409027	138.960617	111.352318	159.242401	48.298958	68.399460	167.980057	314.152588	83.143784	304.789734	232.269577	52.714146	326.698700	279.499878	49.769775	227.745560	200.354568	862.269653	-80.075737	218.915848	777.236206	-77.949142	254.161377	775.553711	-67.756020	191.885376	692.508606	-72.484566	169.503189	552.022095	-53.869698	194.723877	521.917358	50.697075	151.843750	423.991547	-80.379967	173.489029	340.023010	-67.965836	149.292709	254.317230	-67.614212	202.721802	341.153564	-41.714165	146.929169	104.801376	-63.833740	154.838364	100.213669	22.022762	80.147018	77.346207	-14.546150	376.982269	82.851997	-57.720058	312.885040	54.974331	0.026884	302.232239	43.121670	-110.990723	
